<svg width="274" height="63" viewBox="0 0 274 63" fill="none" xmlns="http://www.w3.org/2000/svg">
<rect y="13" width="11" height="11" fill="#F9F7FF"/>
<rect width="11" height="11" fill="#F9F7FF"/>
<rect x="26" y="13" width="11" height="11" fill="#F9F7FF"/>
<rect x="49" y="13" width="11" height="11" fill="#F9F7FF"/>
<rect x="98" y="13" width="11" height="11" fill="#F9F7FF"/>
<rect x="147" y="13" width="11" height="11" fill="#F9F7FF"/>
<rect x="192" y="13" width="11" height="11" fill="#F9F7FF"/>
<rect x="218" y="13" width="11" height="11" fill="#F9F7FF"/>
<rect x="26" width="11" height="11" fill="#F9F7FF"/>
<rect x="49" width="11" height="11" fill="#F9F7FF"/>
<rect x="98" width="11" height="11" fill="#F9F7FF"/>
<rect x="147" width="11" height="11" fill="#F9F7FF"/>
<rect x="192" width="11" height="11" fill="#F9F7FF"/>
<rect x="218" width="11" height="11" fill="#F9F7FF"/>
<rect x="247" y="50" width="27" height="13" fill="#F9F7FF"/>
<rect x="62" width="11" height="11" fill="#F9F7FF"/>
<rect x="75" width="11" height="11" fill="#F9F7FF"/>
<rect y="26" width="11" height="11" fill="#F9F7FF"/>
<rect x="26" y="26" width="11" height="11" fill="#F9F7FF"/>
<rect x="49" y="26" width="11" height="11" fill="#F9F7FF"/>
<rect x="98" y="26" width="11" height="11" fill="#F9F7FF"/>
<rect x="147" y="26" width="11" height="11" fill="#F9F7FF"/>
<rect x="192" y="26" width="11" height="11" fill="#F9F7FF"/>
<rect x="218" y="26" width="11" height="11" fill="#F9F7FF"/>
<rect x="62" y="26" width="11" height="11" fill="#F9F7FF"/>
<rect x="75" y="26" width="11" height="11" fill="#F9F7FF"/>
<rect x="13" y="26" width="11" height="11" fill="#F9F7FF"/>
<rect y="39" width="11" height="11" fill="#F9F7FF"/>
<rect y="52" width="11" height="11" fill="#F9F7FF"/>
<rect x="26" y="39" width="11" height="11" fill="#F9F7FF"/>
<rect x="49" y="39" width="11" height="11" fill="#F9F7FF"/>
<rect x="98" y="39" width="11" height="11" fill="#F9F7FF"/>
<rect x="147" y="39" width="11" height="11" fill="#F9F7FF"/>
<rect x="192" y="39" width="11" height="11" fill="#F9F7FF"/>
<rect x="218" y="39" width="11" height="11" fill="#F9F7FF"/>
<rect x="26" y="52" width="11" height="11" fill="#F9F7FF"/>
<rect x="49" y="52" width="11" height="11" fill="#F9F7FF"/>
<rect x="98" y="52" width="11" height="11" fill="#F9F7FF"/>
<rect x="147" y="52" width="11" height="11" fill="#F9F7FF"/>
<rect x="192" y="52" width="11" height="11" fill="#F9F7FF"/>
<rect x="111" y="52" width="11" height="11" fill="#F9F7FF"/>
<rect x="160" y="52" width="11" height="11" fill="#F9F7FF"/>
<rect x="205" y="52" width="11" height="11" fill="#F9F7FF"/>
<rect x="205" width="11" height="11" fill="#F9F7FF"/>
<rect x="124" y="52" width="11" height="11" fill="#F9F7FF"/>
<rect x="173" y="52" width="11" height="11" fill="#F9F7FF"/>
<rect x="218" y="52" width="11" height="11" fill="#F9F7FF"/>
<rect x="62" y="52" width="11" height="11" fill="#F9F7FF"/>
<rect x="75" y="52" width="11" height="11" fill="#F9F7FF"/>
</svg>
