<svg width="34" height="31" viewBox="0 0 34 31" fill="none" xmlns="http://www.w3.org/2000/svg">
<path d="M4.13172 0.750977L0 5.93214V7.38302C0 11.5275 6.7479 11.5275 6.7479 7.38302C6.7479 11.5275 13.2203 11.5275 13.2203 7.38302C13.2203 11.5275 19.9682 11.5275 19.9682 7.38302C19.9682 11.5275 26.4413 11.5275 26.4413 7.38302C26.4413 11.5275 33.1885 11.5275 33.1885 7.38302V5.93214L29.0575 0.750977H4.13172ZM6.67986 9.86987C6.47308 10.1463 6.26629 10.3531 6.06017 10.5605C5.30307 11.1822 4.33851 11.4586 3.37462 11.4586C3.09913 11.4586 2.82363 11.4586 2.61751 11.3897V30.2492H30.505V11.3897C30.2295 11.4586 30.0227 11.4586 29.7472 11.4586C28.7833 11.4586 27.8194 11.1822 27.0617 10.5605C26.8555 10.3531 26.6487 10.1456 26.4426 9.86987C26.2352 10.1463 26.0971 10.3531 25.8223 10.5605C25.0645 11.1822 24.1013 11.4586 23.2054 11.4586C22.2422 11.4586 21.2776 11.1822 20.5886 10.5605C20.3825 10.3531 20.1757 10.1456 19.9689 9.86987C19.7621 10.1463 19.556 10.3531 19.3492 10.5605C18.4547 11.2512 17.4901 11.5275 16.5262 11.5275C15.5623 11.5275 14.5984 11.2512 13.8407 10.6294C13.6339 10.422 13.4278 10.2152 13.221 9.9388C13.0142 10.2152 12.8768 10.4227 12.6013 10.6294C11.8435 11.2512 10.8796 11.5275 9.98444 11.5275C9.02055 11.5275 8.05666 11.2512 7.36826 10.6294C7.16147 10.422 6.95536 10.2152 6.74857 9.9388L6.67986 9.86987ZM10.398 12.702C11.9816 12.702 12.67 13.117 13.4965 14.7746H19.6247C19.9695 13.117 20.6579 12.702 22.7238 12.702C24.3067 12.702 26.9923 14.2219 27.4058 16.3634L29.4717 24.4463C29.8846 26.5189 28.7146 28.0381 26.6487 28.0381C25.2026 28.0381 23.3435 27.071 22.1048 24.4463H11.0864C9.84703 27.14 7.98795 28.0381 6.54178 28.0381C4.47592 28.0381 3.30524 26.5182 3.71882 24.4463L5.78468 16.3634C6.19758 14.2219 8.88314 12.702 10.4667 12.702H10.398ZM16.5262 15.5342L11.6374 20.7154H13.7033V23.3401H19.4186V20.785H21.4838L16.5262 15.5342Z" fill="#F9F7FF"/>
</svg>
