<svg width="27" height="27" viewBox="0 0 27 27" fill="none" xmlns="http://www.w3.org/2000/svg">
<path d="M3.34232 0.402344C1.59946 0.402344 0.188759 1.81558 0.188477 3.55449C0.188477 5.29509 1.59917 6.70805 3.3426 6.70805C5.08123 6.70805 6.4939 5.29509 6.4939 3.55449C6.4939 1.8153 5.08095 0.402344 3.34232 0.402344Z" fill="#F9F7FF"/>
<path d="M6.06043 9.1001H0.62207V26.5975H6.06043V9.1001Z" fill="#F9F7FF"/>
<path d="M19.9053 8.66479C17.2598 8.66479 15.4859 10.1153 14.7599 11.4907H14.6871V9.09988H9.47123H9.47095V26.597H14.9045V17.9411C14.9045 15.6591 15.339 13.4487 18.1683 13.4487C20.957 13.4487 20.9942 16.0586 20.9942 18.0874V26.5967H26.4286V16.9996C26.4286 12.2887 25.4121 8.66479 19.9053 8.66479Z" fill="#F9F7FF"/>
</svg>
