<svg width="42" height="29" viewBox="0 0 42 29" fill="none" xmlns="http://www.w3.org/2000/svg">
<path d="M27.5047 17.7191C23.7779 15.6959 20.2094 13.8358 16.5618 11.8938V23.5114C20.4002 21.3917 24.446 19.4504 27.5205 17.7191H27.5047Z" fill="#1A1721"/>
<path d="M27.5047 17.7191C23.7779 15.6959 16.5618 11.8938 16.5618 11.8938L26.1827 18.463C26.1835 18.463 24.4302 19.4504 27.5047 17.7191Z" fill="#1A1721"/>
<path d="M17.2627 28.9641C9.52172 28.8193 6.8778 28.689 5.25269 28.3489C4.15319 28.1229 3.19773 27.6211 2.49716 26.8933C1.95571 26.3425 1.52511 25.5021 1.19104 24.3362C0.904473 23.3648 0.792864 22.5565 0.633746 20.5823C0.390168 16.1268 0.332101 12.4841 0.633746 8.41389C0.882604 6.1662 1.00326 3.49793 2.65628 1.94125C3.43678 1.21271 4.34474 0.743867 5.3643 0.550048C6.95698 0.242849 13.7425 0 20.7671 0C27.7758 0 34.5764 0.242849 36.1706 0.550048C37.4443 0.792896 38.6388 1.52067 39.3401 2.45913C40.8483 4.86922 40.8747 7.86614 41.0278 10.2104C41.0912 11.3273 41.0912 17.6697 41.0278 18.7867C40.7895 22.4914 40.598 23.8022 40.0565 25.1612C39.7217 26.0192 39.4359 26.472 38.9412 26.9738C38.1653 27.746 37.1762 28.2596 36.1057 28.4462C29.4069 28.9579 23.7187 29.069 17.2627 28.9641ZM27.5209 14.0775C23.7941 12.0543 20.2256 10.1782 16.578 8.23616V19.8546C20.4164 17.7348 24.463 15.7928 27.5367 14.0615L27.5209 14.0775Z" fill="#F9F7FF"/>
</svg>
